# xmcd CD database file
#
# Track frame offsets:
#	150
#	27114
#	63009
#	66188
#	101640
#	105373
#	139889
#	168090
#	173102
#	196014
#
# Disc length: 3393 seconds
#
# Revision: 0
# Processed by: cddbd v1.5.2PL0 Copyright (c) Steve Scherf et al.
# Submitted via: CDex 1.70beta2
#
DISCID=770d3f0a
DTITLE=Pojken Flensborg quintet feat. Stan Sulzman - Butterflies
DYEAR=2004
DGENRE=Jazz
TTITLE0=Dark
TTITLE1=Wheel
TTITLE2=Butterfly (1)
TTITLE3=T.H.
TTITLE4=butterfly (2)
TTITLE5=The boy in the blue pyjamas
TTITLE6=Yellow flower
TTITLE7=Butterfly (3)
TTITLE8=The roundabout
TTITLE9=Butterflies
EXTD=YEAR: 2004
EXTT0=
EXTT1=
EXTT2=
EXTT3=
EXTT4=
EXTT5=
EXTT6=
EXTT7=
EXTT8=
EXTT9=
PLAYORDER=
